HIERARCHY
ROOT Hips
{
  OFFSET -31.5692 30.0904 122.763
  CHANNELS 6 Xposition Yposition Zposition Zrotation Xrotation Yrotation
  JOINT LeftUpLeg
  {
    OFFSET 8.64259 1.95398 -2.38835
    CHANNELS 3 Zrotation Xrotation Yrotation
    JOINT LeftLeg
    {
      OFFSET 43.7702 0 0
      CHANNELS 3 Zrotation Xrotation Yrotation
      JOINT LeftFoot
      {
        OFFSET 40.6238 0 0
        CHANNELS 3 Zrotation Xrotation Yrotation
        JOINT LeftToeBase
        {
          OFFSET 12.7242 0 0
          CHANNELS 3 Zrotation Xrotation Yrotation
          End Site
          {
            OFFSET 0 0 0
          }
        }
      }
    }
  }
  JOINT RightUpLeg
  {
    OFFSET -8.2249 1.95398 -2.59336
    CHANNELS 3 Zrotation Xrotation Yrotation
    JOINT RightLeg
    {
      OFFSET 43.5653 0 0
      CHANNELS 3 Zrotation Xrotation Yrotation
      JOINT RightFoot
      {
        OFFSET 40.6238 0 0
        CHANNELS 3 Zrotation Xrotation Yrotation
        JOINT RightToeBase
        {
          OFFSET 12.7242 0 0
          CHANNELS 3 Zrotation Xrotation Yrotation
          End Site
          {
            OFFSET 0 0 0
          }
        }
      }
    }
  }
  JOINT Spine
  {
    OFFSET 0.165834 0.87714 6.61349
    CHANNELS 3 Zrotation Xrotation Yrotation
    JOINT Spine1
    {
      OFFSET 7.38963 1.71661e-005 0
      CHANNELS 3 Zrotation Xrotation Yrotation
      JOINT Spine2
      {
        OFFSET 11.9445 1.14441e-005 0
        CHANNELS 3 Zrotation Xrotation Yrotation
        JOINT Spine3
        {
          OFFSET 14.7254 4.19617e-005 0
          CHANNELS 3 Zrotation Xrotation Yrotation
          JOINT Spine4
          {
            OFFSET 10.9679 0 0
            CHANNELS 3 Zrotation Xrotation Yrotation
            JOINT RightShoulder
            {
              OFFSET 2.46616 -1.6653 3.69651
              CHANNELS 3 Zrotation Xrotation Yrotation
              JOINT RightArm
              {
                OFFSET 13.0012 0 0
                CHANNELS 3 Zrotation Xrotation Yrotation
                JOINT RightForeArm
                {
                  OFFSET 28.7848 1.62311e-005 0
                  CHANNELS 3 Zrotation Xrotation Yrotation
                  JOINT RightHand
                  {
                    OFFSET 26.5688 1.62095e-005 0
                    CHANNELS 3 Zrotation Xrotation Yrotation
                    End Site
                    {
                      OFFSET 0 0 0
                    }
                  }
                }
              }
            }
            JOINT LeftShoulder
            {
              OFFSET 2.38034 -1.29275 -3.7523
              CHANNELS 3 Zrotation Xrotation Yrotation
              JOINT LeftArm
              {
                OFFSET 16.3182 6.07031e-005 0
                CHANNELS 3 Zrotation Xrotation Yrotation
                JOINT LeftForeArm
                {
                  OFFSET 27.0901 0 0
                  CHANNELS 3 Zrotation Xrotation Yrotation
                  JOINT LeftHand
                  {
                    OFFSET 24.5451 1.51738e-005 0
                    CHANNELS 3 Zrotation Xrotation Yrotation
                    End Site
                    {
                      OFFSET 0 0 0
                    }
                  }
                }
              }
            }
            JOINT Neck
            {
              OFFSET 5.0226 -0.0266342 0
              CHANNELS 3 Zrotation Xrotation Yrotation
              JOINT Head
              {
                OFFSET 6.69364 2.86102e-005 0
                CHANNELS 3 Zrotation Xrotation Yrotation
                End Site
                {
                  OFFSET 0 0 0
                }
              }
            }
          }
        }
      }
    }
  }
}
MOTION
Frames:	6
Frame Time:	0.0416667
24.1202 97.2726 -78.529 78.2341 -88.5529 84.7821 -177.282 27.5706 86.1983 -14.013 10.2066 -1.28539 61.2438 2.62966 0.822016 18.7631 -5.18924 0.670528 165.813 -22.3997 80.1301 -34.8954 -29.5527 -6.68748 62.0432 -0.295498 -0.700311 26.0088 -0.469478 7.80977 2.69904 7.44698 -90.2622 12.0112 5.24268 -1.09191 0.350208 5.18954 -1.32218 -22.2698 5.32771 0.538773 -2.25711 5.32771 0.538777 91.454 -21.5513 -107.155 28.7232 -2.73819 -13.5365 -26.5482 -2.45949 -89.4158 -37.9524 8.05499 -33.6821 -86.5737 -36.5145 81.4366 -32.5722 26.3583 49.0937 47.1675 8.43955 -57.6982 28.394 -16.3684 -53.2911 23.6333 -16.0253 -11.135 -13.2567 -11.8583 2.2662 
25.6171 96.8246 -69.8496 125.385 -88.4132 134.91 -176.012 28.7261 88.6733 -18.8467 8.88252 -1.76549 60.1399 0.688674 1.17122 14.3457 -8.23356 2.16577 167.467 -22.9937 82.6802 -40.1822 -20.1431 -5.52937 64.2364 -1.67815 0.36514 27.1591 -0.696685 6.77157 2.31807 7.46182 -91.0694 11.9987 4.10451 -2.57928 0.331346 3.98705 -2.75754 -22.2497 4.68956 -1.22457 -2.23702 4.68957 -1.22457 90.7956 -17.5253 -110.727 32.3733 -7.8612 -10.8539 -22.8905 -3.02769 -86.4897 -36.5326 8.05483 -34.2332 -84.9744 -45.3001 85.6379 -27.8229 22.2752 46.0681 49.9305 12.1815 -59.6576 31.1406 -16.904 -50.3731 24.9699 -11.0163 -3.85858 -15.5816 -9.15508 -0.744818 
27.2283 95.7747 -61.2282 139.772 -87.8099 150.388 -173.423 30.6006 88.9813 -30.1082 8.01253 -3.64417 58.7987 -1.51675 6.08959 11.6817 -4.84951 -6.96967 168.636 -19.5515 83.9156 -50.9021 -11.6042 -5.4113 67.4408 -3.73781 -2.0002 23.9431 0.568153 6.82247 2.3626 7.49965 -90.7681 11.9164 4.33623 -1.99904 0.250812 4.24407 -2.18819 -22.3404 4.73615 -0.600875 -2.32773 4.73615 -0.60088 90.0699 -25.3811 -108.463 32.3643 -10.6509 -8.47118 -23.7951 -4.97857 -83.9314 -34.8985 7.70446 -35.0512 -86.5396 -41.7665 82.5172 -27.5516 16.3445 40.499 51.3469 17.1106 -60.2496 36.1067 -18.6309 -47.5677 24.2027 -12.7934 -11.4344 -14.3084 -8.66607 3.37281 
28.8757 94.3959 -53.1078 133.524 -87.1709 142.588 -170.468 30.7056 85.7065 -43.9659 9.05431 -5.00798 71.1289 7.10443 7.77718 6.30664 -7.91298 -5.8409 169.978 -11.8229 83.7916 -65.8658 -3.54233 -6.0627 70.8028 -5.82632 -4.78025 17.043 2.73017 8.88494 1.91209 7.58847 -90.4851 11.723 3.57538 -1.34366 0.0561596 3.51278 -1.49988 -22.5183 3.81369 -0.205534 -2.50563 3.81369 -0.205536 89.2792 -27.9982 -109.023 33.7996 -12.3934 -4.63566 -27.9733 -9.64026 -80.5873 -34.7096 6.56985 -32.9019 -87.0597 -45.2027 82.3047 -23.379 9.71803 33.3298 55.5452 21.0754 -62.9547 39.4372 -19.546 -45.2484 23.194 -11.0344 -13.928 -12.9689 -6.25596 4.36898 
30.7973 92.6016 -45.724 128.915 -85.0939 132.484 -169.082 25.2969 79.6036 -48.5585 8.50937 -5.67228 77.1074 11.9841 6.77865 11.4029 -6.56477 -4.01867 171.399 -3.02711 80.6557 -82.2415 1.59557 -7.27894 75.2902 -8.68152 -6.33158 15.3571 3.59471 8.28118 1.25416 8.0251 -89.7524 10.8252 2.61171 0.253948 -0.843038 2.62036 0.138666 -23.3968 2.41455 1.02756 -3.38418 2.41455 1.02756 88.4182 -31.0714 -109.429 34.4913 -11.1418 -0.798746 -26.7055 -12.9233 -76.4263 -36.4022 5.97559 -29.7216 -87.3445 -48.96 82.5266 -18.7946 4.36337 20.2472 56.8134 23.5532 -64.9341 38.5467 -19.2697 -45.6801 25.9216 -8.85231 -14.6449 -13.0978 -3.38218 3.00018 
32.8719 90.9727 -38.6776 122.403 -83.8082 122.22 -168.526 19.5621 75.794 -50.125 9.88444 -6.89599 81.6812 16.4632 8.40132 14.598 -4.10805 -5.89415 176.547 6.89468 79.6546 -96.2886 0.625665 -7.59593 77.763 -11.1123 -7.32919 16.8642 3.067 8.04645 0.672267 8.24736 -89.1624 10.3658 1.72283 1.51382 -1.30485 1.78778 1.43653 -23.8379 1.1883 1.96152 -3.82528 1.18831 1.96152 88.1399 -32.0416 -109.563 37.7964 -8.16379 5.80625 -27.8089 -14.2326 -75.3989 -34.9996 5.93985 -30.9708 -87.2629 -49.1895 82.6933 -16.9027 1.49687 5.23185 53.7258 22.4322 -65.5193 36.6425 -18.7954 -47.1007 28.5591 -6.53976 -15.6886 -14.1994 -0.42141 3.36262 
